<?xml version="1.0" standalone="no"?>
<!DOCTYPE svg PUBLIC "-//W3C//DTD SVG 20010904//EN"
 "http://www.w3.org/TR/2001/REC-SVG-20010904/DTD/svg10.dtd">
<svg version="1.0" xmlns="http://www.w3.org/2000/svg"
 width="512.000000pt" height="512.000000pt" viewBox="0 0 512.000000 512.000000"
 preserveAspectRatio="xMidYMid meet">
<metadata>
Created by potrace 1.14, written by Peter Selinger 2001-2017
</metadata>
<g transform="translate(0.000000,512.000000) scale(0.100000,-0.100000)"
fill="#000000" stroke="none">
<path d="M2305 4250 c-83 -6 -130 -30 -156 -80 -22 -41 -23 -82 -4 -170 20
-89 20 -86 -30 -100 -125 -35 -201 -177 -160 -301 22 -66 88 -135 138 -144 34
-7 35 -9 39 -53 6 -90 3 -98 -60 -123 -249 -100 -474 -307 -602 -553 -52 -99
-77 -165 -112 -296 -31 -119 -31 -353 0 -487 77 -326 266 -590 547 -764 l79
-49 13 -62 c28 -138 92 -204 173 -179 42 12 96 67 106 107 6 24 8 25 68 17 80
-10 313 -10 396 0 l65 8 25 -52 c32 -68 73 -94 131 -84 66 11 101 55 129 164
17 64 29 92 41 96 41 13 169 107 246 179 332 313 458 750 337 1175 -31 108
-128 305 -193 392 -66 87 -191 205 -284 268 -67 45 -208 118 -259 135 -15 4
-18 18 -18 81 0 61 3 75 15 75 24 0 87 35 111 62 123 135 54 354 -123 392 -35
8 -36 14 -12 106 16 65 11 134 -14 170 -45 67 -58 70 -323 73 -132 1 -270 0
-309 -3z m145 -167 c1 -17 1 -17 11 0 11 19 29 23 29 6 0 -5 -6 -7 -12 -3 -10
6 -10 4 0 -7 17 -19 15 -29 -5 -23 -10 2 -8 -1 5 -7 12 -7 22 -16 22 -21 0 -4
11 -8 25 -8 14 0 25 -4 25 -10 0 -5 -4 -10 -10 -10 -5 0 -10 -5 -10 -11 0 -6
7 -8 16 -5 8 3 12 2 9 -4 -3 -6 -1 -10 4 -10 6 0 11 7 11 16 0 10 6 14 14 11
9 -4 12 0 9 13 -6 23 14 35 32 20 8 -6 19 -9 25 -5 5 3 10 1 10 -4 0 -6 -7
-11 -15 -11 -10 0 -14 -9 -13 -24 2 -17 6 -22 13 -16 7 6 15 2 22 -9 16 -26
71 -33 78 -10 4 11 12 16 23 13 14 -5 14 -4 3 4 -13 9 -12 13 5 29 11 10 14
14 7 9 -9 -6 -21 -2 -37 13 -20 18 -32 21 -69 17 -42 -5 -45 -4 -39 16 3 13 1
19 -5 15 -7 -5 -9 0 -6 13 6 22 23 27 23 7 0 -27 24 -44 50 -36 25 8 25 9 -3
5 -24 -3 -27 -1 -22 18 5 17 4 18 -5 6 -10 -13 -11 -13 -7 0 5 19 77 27 77 9
0 -10 3 -10 12 -1 14 14 54 16 63 2 9 -14 -6 -111 -16 -104 -5 3 -6 -2 -3 -11
3 -8 3 -26 0 -40 l-6 -25 -123 1 c-74 1 -128 6 -136 13 -11 8 -13 8 -7 -1 9
-16 -37 -18 -65 -3 -13 7 -19 7 -19 0 0 -5 -5 -10 -11 -10 -5 0 -8 4 -4 9 3 6
-4 9 -15 8 -11 -1 -20 -5 -20 -9 0 -4 -18 -8 -39 -8 -36 0 -40 3 -51 35 -6 20
-13 53 -15 74 -1 21 -5 43 -8 49 -4 5 4 9 16 8 12 -1 25 3 29 9 4 5 6 -5 3
-22 -2 -21 1 -33 8 -33 8 0 9 -3 1 -8 -7 -5 -7 -21 -1 -52 5 -25 11 -40 14
-35 2 6 19 9 40 7 22 -3 33 -1 29 6 -3 5 5 12 17 16 13 3 24 12 24 20 0 8 -6
12 -14 9 -9 -4 -11 0 -6 13 4 10 2 15 -3 11 -6 -3 -11 4 -11 15 -1 11 -10 30
-20 41 -12 14 -13 17 -3 12 25 -15 42 -15 36 1 -3 8 -1 14 4 14 6 0 10 -8 10
-17z m-60 -27 c0 -2 -7 -7 -16 -10 -8 -3 -12 -2 -9 4 6 10 25 14 25 6z m580
-321 c31 -33 31 -87 -1 -121 -18 -19 -33 -24 -71 -24 -82 0 -88 -12 -88 -190
0 -95 4 -159 12 -176 9 -20 45 -42 153 -93 77 -38 165 -87 195 -110 526 -398
588 -1097 137 -1553 -142 -143 -291 -229 -495 -285 -87 -24 -114 -27 -262 -27
-149 0 -175 2 -270 27 -188 50 -360 148 -487 279 -110 112 -155 176 -212 298
-64 137 -83 222 -88 386 -7 208 20 330 108 507 106 210 315 395 561 497 122
51 121 50 120 241 -1 192 -4 199 -88 199 -45 0 -56 4 -73 26 -12 15 -21 38
-21 51 0 29 25 79 42 86 7 3 191 6 409 6 l396 1 23 -25z"/>
<path d="M2700 4079 c0 -5 5 -7 10 -4 6 3 10 8 10 11 0 2 -4 4 -10 4 -5 0 -10
-5 -10 -11z"/>
<path d="M2793 4075 c0 -8 4 -12 9 -9 4 3 8 9 8 15 0 5 -4 9 -8 9 -5 0 -9 -7
-9 -15z"/>
<path d="M2297 4050 c3 -11 9 -17 14 -15 10 7 1 35 -11 35 -5 0 -6 -9 -3 -20z"/>
<path d="M2426 4057 c3 -10 9 -15 12 -12 3 3 0 11 -7 18 -10 9 -11 8 -5 -6z"/>
<path d="M2503 3991 c-9 -15 -10 -22 -1 -27 6 -4 8 -3 4 4 -3 5 -1 12 5 14 7
2 10 9 8 16 -3 8 -9 5 -16 -7z"/>
<path d="M2585 3952 c0 -23 4 -28 26 -27 17 0 25 4 22 13 -4 9 -9 10 -19 1
-10 -8 -14 -8 -15 0 -3 25 -4 30 -9 35 -3 3 -6 -7 -5 -22z"/>
<path d="M2466 3948 c3 -5 10 -6 15 -3 13 9 11 12 -6 12 -8 0 -12 -4 -9 -9z"/>
<path d="M3115 2322 c-78 -7 -126 -40 -156 -107 -67 -146 63 -298 217 -256 55
15 93 46 115 95 61 135 -36 282 -176 268z"/>
<path d="M1885 2308 c-71 -39 -110 -109 -102 -186 11 -107 98 -181 197 -169
67 8 105 30 138 79 23 35 27 52 26 107 0 83 -27 131 -88 160 -47 23 -137 28
-171 9z"/>
<path d="M2370 2082 c-28 -23 -31 -82 -6 -130 79 -153 305 -147 371 10 18 45
19 68 3 103 -25 56 -90 37 -102 -30 -8 -43 -39 -65 -89 -65 -54 0 -75 14 -87
60 -18 67 -49 85 -90 52z"/>
<path d="M1832 1894 c-27 -18 -29 -55 -4 -77 26 -24 59 -21 77 7 24 36 -2 86
-44 86 -3 0 -17 -7 -29 -16z"/>
<path d="M3200 1890 c-25 -25 -26 -52 -2 -73 26 -24 59 -21 77 7 24 37 -2 86
-46 86 -5 0 -18 -9 -29 -20z"/>
<path d="M1503 3428 c-4 -7 -13 -29 -18 -48 -7 -25 -20 -40 -44 -52 -19 -9
-39 -22 -44 -27 -16 -16 8 -61 32 -61 22 0 61 -44 61 -70 0 -23 26 -44 45 -36
9 3 24 25 34 48 13 31 29 48 55 60 49 24 48 50 -4 83 -29 18 -42 35 -50 64
-12 47 -48 67 -67 39z m42 -162 l-17 -26 -18 22 c-16 21 -17 24 -1 45 15 21
17 21 35 4 17 -18 17 -20 1 -45z"/>
<path d="M3546 3425 c-9 -9 -16 -25 -16 -35 0 -23 -28 -57 -60 -73 -40 -20
-34 -58 13 -80 27 -13 39 -25 43 -47 7 -35 35 -63 55 -55 8 3 24 25 34 48 14
30 31 47 58 60 50 23 47 53 -8 81 -27 14 -42 31 -48 51 -20 65 -41 80 -71 50z
m44 -159 c-19 -19 -20 -19 -40 -1 l-20 18 21 23 22 23 18 -22 c17 -21 17 -23
-1 -41z"/>
</g>
</svg>
